<svg xmlns="http://www.w3.org/2000/svg" viewBox="0 0 128 128">
  <rect width="128" height="128" rx="24" fill="#0f766e"/>
  <path d="M34 22h60c8.8 0 16 7.2 16 16v42c0 8.8-7.2 16-16 16H34c-8.8 0-16-7.2-16-16V38c0-8.8 7.2-16 16-16z" fill="#f8fafc"/>
  <path d="M34 34h60c2.2 0 4 1.8 4 4v20H30V38c0-2.2 1.8-4 4-4z" fill="#14b8a6"/>
  <path d="M36 74h56" stroke="#0f172a" stroke-width="8" stroke-linecap="round"/>
  <circle cx="42" cy="90" r="8" fill="#0f172a"/>
  <circle cx="86" cy="90" r="8" fill="#0f172a"/>
  <path d="M40 108h48" stroke="#f8fafc" stroke-width="10" stroke-linecap="round"/>
</svg>
